<svg _ngcontent-htd-c38="" xmlns="http://www.w3.org/2000/svg" viewBox="0 0 25 20"><path _ngcontent-htd-c38="" id="Agricultural" d="M-12.5-15.625A1.875,1.875,0,0,1-10.625-17.5H.625A1.875,1.875,0,0,1,2.5-15.625V.625A1.875,1.875,0,0,1,.625,2.5h-3.75V-.625A1.875,1.875,0,0,0-5-2.5,1.875,1.875,0,0,0-6.875-.625V2.5h-3.75A1.875,1.875,0,0,1-12.5.625ZM-9.375-8.75A.627.627,0,0,0-10-8.125v1.25a.627.627,0,0,0,.625.625h1.25A.627.627,0,0,0-7.5-6.875v-1.25a.627.627,0,0,0-.625-.625Zm3.125.625v1.25a.627.627,0,0,0,.625.625h1.25a.627.627,0,0,0,.625-.625v-1.25a.627.627,0,0,0-.625-.625h-1.25A.627.627,0,0,0-6.25-8.125Zm4.375-.625a.627.627,0,0,0-.625.625v1.25a.627.627,0,0,0,.625.625h1.25A.627.627,0,0,0,0-6.875v-1.25A.627.627,0,0,0-.625-8.75ZM-10-13.125v1.25a.627.627,0,0,0,.625.625h1.25a.627.627,0,0,0,.625-.625v-1.25a.627.627,0,0,0-.625-.625h-1.25A.627.627,0,0,0-10-13.125Zm4.375-.625a.627.627,0,0,0-.625.625v1.25a.627.627,0,0,0,.625.625h1.25a.627.627,0,0,0,.625-.625v-1.25a.627.627,0,0,0-.625-.625Zm3.125.625v1.25a.627.627,0,0,0,.625.625h1.25A.627.627,0,0,0,0-11.875v-1.25a.627.627,0,0,0-.625-.625h-1.25A.627.627,0,0,0-2.5-13.125ZM12.5-10v.625A3.124,3.124,0,0,1,9.375-6.25H8.75v-.625A3.124,3.124,0,0,1,11.875-10Zm0,5A3.124,3.124,0,0,1,9.375-1.875H8.75V-2.5a3.124,3.124,0,0,1,3.125-3.125H12.5Zm0,4.375A3.124,3.124,0,0,1,9.375,2.5H8.75V1.875A3.124,3.124,0,0,1,11.875-1.25H12.5Zm-5,2.5V2.5H6.875A3.124,3.124,0,0,1,3.75-.625V-1.25h.625A3.124,3.124,0,0,1,7.5,1.875Zm0-3.75H6.875A3.124,3.124,0,0,1,3.75-5v-.625h.625A3.124,3.124,0,0,1,7.5-2.5Zm0-5v.625H6.875A3.124,3.124,0,0,1,3.75-9.375V-10h.625A3.124,3.124,0,0,1,7.5-6.875Zm.625-9.375a.935.935,0,0,1,.938.938v4.063a.935.935,0,0,1-.937.938.935.935,0,0,1-.937-.937v-4.062A.935.935,0,0,1,8.125-16.25Zm3.75,2.5v1.25a.935.935,0,0,1-.937.938A.935.935,0,0,1,10-12.5v-1.25a.935.935,0,0,1,.938-.937A.935.935,0,0,1,11.875-13.75Zm-6.562-.937a.935.935,0,0,1,.938.938v1.25a.935.935,0,0,1-.937.938.935.935,0,0,1-.937-.937v-1.25A.935.935,0,0,1,5.313-14.687Z" transform="translate(12.5 17.5)"></path></svg>