<svg _ngcontent-htd-c38="" xmlns="http://www.w3.org/2000/svg" viewBox="0 0 20 20"><path _ngcontent-htd-c38="" id="Commercial" d="M-10-16.25A1.249,1.249,0,0,1-8.75-17.5H8.75A1.249,1.249,0,0,1,10-16.25,1.249,1.249,0,0,1,8.75-15V0a1.25,1.25,0,0,1,0,2.5H1.875V.625A1.875,1.875,0,0,0,0-1.25,1.875,1.875,0,0,0-1.875.625V2.5H-8.75A1.249,1.249,0,0,1-10,1.25,1.249,1.249,0,0,1-8.75,0V-15A1.249,1.249,0,0,1-10-16.25Zm3.75,3.125v1.25a.627.627,0,0,0,.625.625h1.25a.627.627,0,0,0,.625-.625v-1.25a.627.627,0,0,0-.625-.625h-1.25A.627.627,0,0,0-6.25-13.125Zm5.625-.625a.627.627,0,0,0-.625.625v1.25a.627.627,0,0,0,.625.625H.625a.627.627,0,0,0,.625-.625v-1.25a.627.627,0,0,0-.625-.625Zm4.375.625v1.25a.627.627,0,0,0,.625.625h1.25a.627.627,0,0,0,.625-.625v-1.25a.627.627,0,0,0-.625-.625H4.375A.627.627,0,0,0,3.75-13.125ZM-5.625-10a.627.627,0,0,0-.625.625v1.25a.627.627,0,0,0,.625.625h1.25a.627.627,0,0,0,.625-.625v-1.25A.627.627,0,0,0-4.375-10Zm4.375.625v1.25A.627.627,0,0,0-.625-7.5H.625a.627.627,0,0,0,.625-.625v-1.25A.627.627,0,0,0,.625-10H-.625A.627.627,0,0,0-1.25-9.375ZM4.375-10a.627.627,0,0,0-.625.625v1.25a.627.627,0,0,0,.625.625h1.25a.627.627,0,0,0,.625-.625v-1.25A.627.627,0,0,0,5.625-10ZM2.813-2.5a.778.778,0,0,0,.82-.93A3.751,3.751,0,0,0,0-6.25,3.748,3.748,0,0,0-3.633-3.43a.782.782,0,0,0,.82.93Z" transform="translate(10 17.5)"></path></svg>