<svg _ngcontent-htd-c38="" xmlns="http://www.w3.org/2000/svg" viewBox="0 0 22.498 20"><path _ngcontent-htd-c38="" id="Residential" d="M9.992-6.266a1.259,1.259,0,0,0,1.25-1.254,1.07,1.07,0,0,0-.43-.937L8.75-10.273V-15A1.249,1.249,0,0,0,7.5-16.25H6.25A1.249,1.249,0,0,0,5-15v1.434L.84-17.227A1.3,1.3,0,0,0,.02-17.5a1.127,1.127,0,0,0-.859.313l-10.02,8.73a1.27,1.27,0,0,0-.391.938A1.237,1.237,0,0,0-10-6.266h1.25v2.723a.988.988,0,0,0,0,.109V.938A1.562,1.562,0,0,0-7.191,2.5h.625c.047,0,.094,0,.141-.008s.117.008.176.008h2.188A1.562,1.562,0,0,0-2.5.938V-2.5A1.249,1.249,0,0,1-1.25-3.75h2.5A1.249,1.249,0,0,1,2.5-2.5V.938A1.562,1.562,0,0,0,4.063,2.5H6.27c.055,0,.109,0,.164,0s.086,0,.129,0h.625A1.562,1.562,0,0,0,8.75.938V.3a2.752,2.752,0,0,0,.02-.316L8.742-6.27h1.25Z" transform="translate(11.25 17.5)"></path></svg>